<svg xmlns="http://www.w3.org/2000/svg" width="937.004" height="829.021" viewBox="0 0 937.004 829.021">
    <defs>
        <style>
            .cls-1{fill:#8e4ae2}.cls-2,.cls-7{fill:#1f0c2d}.cls-2,.cls-5{opacity:.2}.cls-17,.cls-3{fill:#fff}.cls-4{fill:#ddc5ff}.cls-5{fill:#5275a0}.cls-6{fill:#f5b200}.cls-8{fill:#cf2780}.cls-9{fill:#ffb9a3}.cls-10{fill:#0c2340}.cls-11{fill:#009790}.cls-12{fill:#492d84}.cls-13{fill:#0056ec}.cls-14{fill:#ef832b}.cls-15{fill:none;stroke:#ef832b;stroke-miterlimit:10}.cls-16{fill:#d90}.cls-17{opacity:.03}.cls-18{opacity:.05;fill:url(#linear-gradient)}
        </style>
        <linearGradient id="linear-gradient" x1=".5" x2=".5" y1="1.103" y2="-.518" gradientUnits="objectBoundingBox">
            <stop offset="0" stop-color="#fff"/>
            <stop offset="1" stop-color="#5b2dde"/>
        </linearGradient>
    </defs>
    <g id="Group_2455" data-name="Group 2455" transform="translate(-891.467 -87.69)">
        <g id="Group_1528" data-name="Group 1528" transform="translate(878.772 73.663)">
            <g id="Group_1499" data-name="Group 1499" transform="translate(12.695 43.227)">
                <g id="Group_1498" data-name="Group 1498">
                    <path id="Path_737" d="M209.562 144.923c30.838 2.063 43.74-18.977 58.229-46.02C307.46 24.865 395.8 32 425.431 77.589c20.989 32.293 66.253 25.65 102.869 13.011 36.038-12.44 97.437-24.39 146.342-9.524 42.715 12.983 60.243 59.822 99.181 56.942 84.943-6.286 127.766 77.574 112.381 114.148-10.041 23.873-15.026 50.575-6.862 75.138 8.993 27.053 29.531 48.47 46.132 71.727s29.971 52.33 21.719 79.614c-7.062 23.346-28.127 39.5-41.2 60.144-40.607 64.112-.436 162.367-54.545 215.806-38.731 38.251-101.876 29.42-156.071 36.721-45.193 6.089-87.722 25.067-132.712 32.5-91.106 15.058-183.112-18.11-275.474-19.046-32.534-.33-65.676 3.3-97.187-4.726-42.049-10.7-77.826-43.044-92.412-83.544-20.128-55.881-1.056-120.552-23.8-175.442-18.52-44.717-63.819-81.095-60.969-129.348 1.773-30.038 22.3-55.167 36.411-81.813 20.977-39.597-6.797-196.158 160.328-184.974zm268.85-72.538c-8.1 0-14.675 5.034-14.675 11.243s6.588 10.708 14.675 11.243c26.356 1.741 26.356-8.914 26.356-15.123.001-9.92-18.249-7.363-26.356-7.363zm267.662 47.943a43.373 43.373 0 0 0 25.193 9.775c2.446.126 5.111-.03 7-1.579a5.72 5.72 0 0 0 .517-8.033c-1.3-1.38-3.2-2-4.969-2.719-3.013-1.224-5.964-2.977-7.67-5.723a5.63 5.63 0 0 0-1.743-2.174c-5.102-2.87-27.602 2.795-18.328 10.453zm44.895 9.933c2.32.8 4.863.063 7.2-.695 1.5-.486 3.335-1.556 2.932-3.066a2.809 2.809 0 0 0-1.546-1.566c-3.074-1.645-7.058-2.857-10.148-.754s-.758 5.281 1.562 6.08zm107.188 211.768c.4 3.5 2.558 6.519 4.647 9.368 4.027 5.492 8.118 11.052 13.435 15.338 2.249 1.814 4.864 3.435 7.763 3.536a12.171 12.171 0 0 0 7.309-2.638 23.248 23.248 0 0 0 9.455-16.047c.989-8.693-3.054-17.154-7.757-24.558-2.912-4.586-6.31-9.157-11.184-11.615-8.169-4.122-13.569-.523-15.853 6.712-2.101 6.661-8.664 12.489-7.815 19.904zM28.734 544.4c-4.3 3.791-.421 14.884.849 22.206a13.517 13.517 0 0 0 2.276 6.219c1.9 2.4 5.046 3.382 8 4.239 5.238 1.52 11.587 2.807 15.587-.873 2.967-2.728 3.388-7.178 3.382-11.19a104.452 104.452 0 0 0-.59-10.971 11.715 11.715 0 0 0-1.376-5.048c-1.2-1.913-3.331-3.027-5.419-3.911-7.495-3.171-18.405-4.459-22.709-.671zm263.009 277.91c-2.545.509-5.585 1.611-5.952 4.156-.3 2.1 1.467 3.9 3.181 5.179 14.045 10.477 32.944 11.147 50.525 11.391a14.968 14.968 0 0 0 6.067-.752 7.806 7.806 0 0 0 3.814-10.193 12.617 12.617 0 0 0-2.711-3.495c-14.126-13.748-37.348-9.809-54.924-6.283zm350.743-7.09c-15.851 11.6.18 21.944 20.2 14.264 10.789-4.138 21.132-8.225 32.172-10.995 3.57-.894 25.146-5.56 25.148-10.406.006-12.847-24.311-9.814-39.6-7.672-12.334 1.728-24.849 5.249-37.921 14.812z" class="cls-1" data-name="Path 737" transform="translate(-12.695 -43.227)"/>
                </g>
            </g>
            <ellipse id="Ellipse_308" cx="76.299" cy="7.129" class="cls-2" data-name="Ellipse 308" rx="76.299" ry="7.129" transform="translate(268.289 767.469)"/>
            <ellipse id="Ellipse_309" cx="76.299" cy="7.129" class="cls-2" data-name="Ellipse 309" rx="76.299" ry="7.129" transform="translate(660.278 767.469)"/>
            <g id="Group_1503" data-name="Group 1503" transform="translate(54.158 218.217)">
                <g id="Group_1500" data-name="Group 1500" transform="translate(841.936 49.612)">
                    <path id="Path_738" d="M461.846 162.853a.984.984 0 0 1-.971-.829q-.323-1.972-.7-3.85a.988.988 0 0 1 1.937-.389q.382 1.913.711 3.923a.988.988 0 0 1-.815 1.133 1.11 1.11 0 0 1-.162.012z" class="cls-3" data-name="Path 738" transform="translate(-460.154 -156.992)"/>
                </g>
                <g id="Group_1501" data-name="Group 1501">
                    <path id="Path_739" d="M50.638 331.368a.986.986 0 0 1-.482-.126 21.3 21.3 0 0 1-6.236-5.342.988.988 0 1 1 1.546-1.23 19.259 19.259 0 0 0 5.656 4.851.989.989 0 0 1-.484 1.85zm-9.729-11.974a.988.988 0 0 1-.93-.653 28.22 28.22 0 0 1-1.6-7.984.987.987 0 0 1 1.97-.109 26.434 26.434 0 0 0 1.485 7.427.985.985 0 0 1-.928 1.319zm-.849-15.529a1.023 1.023 0 0 1-.229-.028.986.986 0 0 1-.73-1.189 25.271 25.271 0 0 1 3.123-7.546.987.987 0 0 1 1.674 1.046 23.4 23.4 0 0 0-2.878 6.957.986.986 0 0 1-.96.759zm8.266-13.058a.988.988 0 0 1-.6-1.773 23.871 23.871 0 0 1 7.261-3.751.987.987 0 1 1 .6 1.88 21.921 21.921 0 0 0-6.665 3.441.986.986 0 0 1-.596.203zm14.7-4.908a.987.987 0 0 1-.038-1.972c.444-.02.894-.028 1.352-.028a62.4 62.4 0 0 0 6.448-.338.977.977 0 0 1 1.088.877.988.988 0 0 1-.876 1.085 64.228 64.228 0 0 1-6.655.349q-.649 0-1.277.026zm15.6-1.818a.987.987 0 0 1-.265-1.937 34.834 34.834 0 0 0 7.107-2.811.986.986 0 1 1 .934 1.737 36.631 36.631 0 0 1-7.51 2.975 1.046 1.046 0 0 1-.259.035zm13.654-7.512a.987.987 0 0 1-.691-1.692 23.608 23.608 0 0 0 4.474-6.057.987.987 0 1 1 1.755.9 25.565 25.565 0 0 1-4.847 6.564.988.988 0 0 1-.684.284zM99.4 262.8a.9.9 0 0 1-.162-.014.986.986 0 0 1-.813-1.135 26.859 26.859 0 0 0 .357-4.379 28.657 28.657 0 0 0-.186-3.2.987.987 0 1 1 1.96-.223 30.755 30.755 0 0 1 .2 3.423 28.852 28.852 0 0 1-.385 4.7.984.984 0 0 1-.971.828zm-1.72-15.484a.988.988 0 0 1-.92-.628 28.758 28.758 0 0 0-3.662-6.659.987.987 0 0 1 1.587-1.175 30.921 30.921 0 0 1 3.915 7.115.99.99 0 0 1-.561 1.279 1 1 0 0 1-.356.07zm-9.32-12.461a.989.989 0 0 1-.586-.194 22.236 22.236 0 0 0-6.691-3.41.988.988 0 0 1 .582-1.887 24.253 24.253 0 0 1 7.283 3.71.987.987 0 0 1-.588 1.781zM73.6 230.28h-.024a39.232 39.232 0 0 1-8-1 .987.987 0 0 1 .448-1.923 37.123 37.123 0 0 0 7.6.95.987.987 0 0 1-.022 1.974zm-15.21-3.6a.969.969 0 0 1-.432-.1 36.954 36.954 0 0 1-6.829-4.312.987.987 0 1 1 1.228-1.546 35.014 35.014 0 0 0 6.466 4.083.988.988 0 0 1-.432 1.876zm-12.272-9.7a.99.99 0 0 1-.758-.353 45.61 45.61 0 0 1-4.59-6.61.987.987 0 0 1 1.714-.981 43.556 43.556 0 0 0 4.391 6.324.988.988 0 0 1-.122 1.39.977.977 0 0 1-.634.233zm-7.84-13.593a.987.987 0 0 1-.924-.636 55.747 55.747 0 0 1-2.284-7.692.987.987 0 1 1 1.93-.423 53.961 53.961 0 0 0 2.2 7.419.984.984 0 0 1-.922 1.335zm-3.412-15.348a.987.987 0 0 1-.983-.908 59.413 59.413 0 0 1-.188-4.7q0-1.655.093-3.307a1 1 0 0 1 1.04-.93.987.987 0 0 1 .93 1.04q-.092 1.6-.089 3.2c0 1.514.061 3.044.182 4.547a.988.988 0 0 1-.9 1.064zM874.74 175.79a.983.983 0 0 1-.946-.709 73.663 73.663 0 0 0-2.572-7.328.987.987 0 1 1 1.824-.754 75.293 75.293 0 0 1 2.642 7.526.985.985 0 0 1-.669 1.224.971.971 0 0 1-.279.041zm-838.966-3.439a.938.938 0 0 1-.2-.02.988.988 0 0 1-.774-1.163 53.366 53.366 0 0 1 2.166-7.725.988.988 0 0 1 1.856.677 51.069 51.069 0 0 0-2.085 7.439.989.989 0 0 1-.963.792zM868.67 161.3a.98.98 0 0 1-.855-.494 50.88 50.88 0 0 0-4.345-6.373.986.986 0 1 1 1.538-1.236 52.411 52.411 0 0 1 4.517 6.622.985.985 0 0 1-.855 1.481zm-827.479-3.679a.987.987 0 0 1-.857-1.475 44.93 44.93 0 0 1 4.574-6.62.987.987 0 0 1 1.516 1.266 42.912 42.912 0 0 0-4.373 6.327.994.994 0 0 1-.86.502zm817.635-8.521a.974.974 0 0 1-.655-.251 46.745 46.745 0 0 0-6.171-4.621.988.988 0 0 1 1.052-1.672 48.821 48.821 0 0 1 6.424 4.819.988.988 0 0 1-.655 1.725zm-807.568-3.49a.988.988 0 0 1-.628-1.751 42.8 42.8 0 0 1 6.687-4.485.987.987 0 1 1 .942 1.735 40.781 40.781 0 0 0-6.377 4.278.983.983 0 0 1-.624.223zm794.311-4.9a.958.958 0 0 1-.395-.083 63.376 63.376 0 0 0-7.291-2.644.988.988 0 0 1 .563-1.893 65.049 65.049 0 0 1 7.518 2.728.987.987 0 0 1-.395 1.891zm-780.56-2.6a.988.988 0 0 1-.312-1.925 51.85 51.85 0 0 1 7.788-1.917.987.987 0 1 1 .326 1.947 49.94 49.94 0 0 0-7.492 1.844.944.944 0 0 1-.31.051zm765.5-1.943a1.03 1.03 0 0 1-.19-.018 106.77 106.77 0 0 0-7.719-1.187.987.987 0 1 1 .231-1.96c2.754.326 5.4.732 7.863 1.208a.987.987 0 0 1-.186 1.956zm-750.03-.7a.987.987 0 0 1-.032-1.974c.693-.024 1.4-.036 2.1-.038v.043c.565-.045 1.684-.047 4.095-.051h1.824a.987.987 0 0 1 0 1.974h-1.824c-2.588 0-3.986.008-4.079.008h-.003q-1.034 0-2.047.036zm15.95-.065a.987.987 0 0 1 0-1.974l7.931-.016a.987.987 0 0 1 0 1.974l-7.931.016zm15.847-.034a.987.987 0 0 1 0-1.974l7.911-.018a.987.987 0 0 1 0 1.974l-7.913.018zm15.818-.034a.987.987 0 0 1 0-1.974l7.9-.016a.987.987 0 0 1 0 1.974l-7.9.016zm15.806-.034a.987.987 0 0 1 0-1.974l7.9-.016a.987.987 0 0 1 0 1.974l-7.9.016zm15.8-.034a.987.987 0 0 1 0-1.974l7.9-.016a.987.987 0 0 1 0 1.974l-7.9.016zm15.794-.032a.987.987 0 0 1 0-1.974l7.9-.016a.987.987 0 0 1 0 1.974l-7.9.016zm15.788-.032a.987.987 0 0 1 0-1.974l7.9-.018a.987.987 0 0 1 0 1.974l-7.9.018zm15.786-.034a.987.987 0 0 1 0-1.974l7.893-.016a.987.987 0 0 1 0 1.974l-7.893.016zm15.788-.032a.987.987 0 0 1 0-1.974l7.893-.018a.987.987 0 0 1 0 1.974l-7.893.018zm15.782-.034a.987.987 0 0 1 0-1.974l7.893-.016a.987.987 0 0 1 0 1.974l-7.893.016zm15.784-.034a.987.987 0 0 1 0-1.974l7.891-.016a.987.987 0 0 1 0 1.974l-7.891.016zm15.784-.032a.987.987 0 0 1 0-1.974l7.889-.016a.987.987 0 0 1 0 1.974l-7.889.016zm15.78-.032a.987.987 0 0 1 0-1.974l7.889-.018a.987.987 0 0 1 0 1.974l-7.889.018zm15.78-.034a.987.987 0 1 1 0-1.974l7.7-.016.193.987-.19.987-7.7.016zm15.782-.034a.987.987 0 0 1 0-1.974l7.733-.016.158.987-.154.987-7.733.016zm15.78-.032a.987.987 0 0 1 0-1.974l7.751-.016.14.987-.136.987-7.751.016zm15.778-.034a.987.987 0 1 1 0-1.974l7.767-.016.124.987-.12.987-7.769.016zm15.782-.032a.987.987 0 0 1 0-1.974l7.8-.016.089.987-.085.987-7.8.016zm15.778-.034a.987.987 0 0 1 0-1.974l7.82-.016.071.987-.067.987-7.82.016zm15.78-.032a.987.987 0 0 1 0-1.974l7.856-.016.036.987-.032.987-7.855.016zm15.776-.034a.987.987 0 0 1 0-1.974l7.873-.016.018.987-.014.987-7.873.016zm15.78-.032a.987.987 0 0 1 0-1.974l7.889-.016a.987.987 0 0 1 0 1.974l-7.889.016zm15.81-.032a.987.987 0 0 1 0-1.974l7.909-.016a.987.987 0 0 1 0 1.974l-7.909.016zm15.8-.034a.987.987 0 0 1 0-1.974l7.883-.016a.987.987 0 0 1 0 1.974l-7.883.016zm15.753-.034a.987.987 0 0 1 0-1.974l7.86-.016a.987.987 0 0 1 0 1.974l-7.86.016zm15.749-.032a.987.987 0 0 1 0-1.974l7.889-.016a.987.987 0 0 1 0 1.974l-7.889.016zm15.78-.034a.987.987 0 0 1 0-1.974l7.889-.016a.987.987 0 0 1 0 1.974l-7.889.016zm15.776-.032a.987.987 0 0 1 0-1.974l7.891-.016a.987.987 0 0 1 0 1.974l-7.891.016zm15.78-.032a.987.987 0 0 1 0-1.974l7.891-.016a.987.987 0 0 1 0 1.974l-7.891.016zm15.782-.034a.987.987 0 0 1 0-1.974l7.891-.016a.987.987 0 0 1 0 1.974l-7.891.016zm15.782-.034a.987.987 0 0 1 0-1.974l7.891-.016a.987.987 0 0 1 0 1.974l-7.893.016zm15.78-.032a.987.987 0 0 1 0-1.974l7.891-.016a.987.987 0 0 1 0 1.974l-7.891.016zm15.782-.032a.987.987 0 0 1 0-1.974l7.891-.018a.987.987 0 0 1 0 1.974l-7.891.018zm15.782-.034a.987.987 0 0 1 0-1.974l7.893-.016a.987.987 0 0 1 0 1.974l-7.893.016zm15.786-.032a.987.987 0 0 1 0-1.974l7.891-.018a.987.987 0 0 1 0 1.974l-7.891.018zm181.719-.016h-.061a207.635 207.635 0 0 0-7.836-.336.987.987 0 0 1 .049-1.974c2.845.073 5.431.184 7.909.34a.987.987 0 0 1-.061 1.972zm-165.932-.018a.987.987 0 0 1 0-1.974l7.891-.016a.987.987 0 0 1 0 1.974l-7.891.016zm15.786-.032a.987.987 0 0 1 0-1.974l7.893-.018a.987.987 0 0 1 0 1.974l-7.893.018zm15.786-.034a.987.987 0 0 1 0-1.974l7.9-.016a.987.987 0 0 1 0 1.974l-7.9.016zm15.79-.034a.987.987 0 0 1 0-1.974l7.9-.016a.987.987 0 0 1 0 1.974l-7.9.016zm15.8-.034a.987.987 0 0 1 0-1.974l7.9-.016a.987.987 0 0 1 0 1.974l-7.9.016zm15.8-.03a.987.987 0 0 1 0-1.974l7.9-.018a.987.987 0 0 1 0 1.974l-7.9.018zm15.812-.034a.987.987 0 0 1 0-1.974l7.913-.016a.987.987 0 0 1 0 1.974l-7.913.016zm15.834-.034a.987.987 0 0 1 0-1.974l7.931-.016a.987.987 0 0 1 0 1.974l-7.931.016zm15.891-.034a.987.987 0 0 1 0-1.974l3.072-.006q2.411 0 4.837-.028h.01a.987.987 0 0 1 .01 1.974q-2.437.024-4.853.028l-3.072.006zm15.8-.114a.987.987 0 0 1-.01-1.974q3.613-.036 7.218-.041h.675a.987.987 0 1 1 0 1.974h-.679c-2.391 0-4.793.018-7.194.042z" class="cls-3" data-name="Path 739" transform="translate(-33.697 -131.863)"/>
                </g>
                <g id="Group_1502" data-name="Group 1502" transform="translate(22.419 199.802)">
                    <path id="Path_740" d="M49.932 235.364a24 24 0 0 1-4.059-.338.987.987 0 1 1 .334-1.945 23.246 23.246 0 0 0 3.775.308.988.988 0 0 1 .987.985 1 1 0 0 1-1.037.99z" class="cls-3" data-name="Path 740" transform="translate(-45.053 -233.066)"/>
                </g>
            </g>
            <path id="Path_741" d="M60.9 236.7a9.455 9.455 0 1 1-10.91-7.731A9.457 9.457 0 0 1 60.9 236.7z" class="cls-3" data-name="Path 741" transform="translate(28.672 180.832)"/>
            <path id="Path_742" d="M474.981 167.117a9.454 9.454 0 1 1-7.607-11 9.453 9.453 0 0 1 7.607 11z" class="cls-1" data-name="Path 742" transform="translate(432.112 109.837)"/>
            <path id="Path_743" d="M110.878 424.791c-10.835-9.573-21.8-19.3-29.8-31.335-6.973-10.487-11.474-22.4-17.557-33.422-3.937-7.135-8.584-14.009-10.864-21.833s-1.733-17.089 3.826-23.047c5.8-6.215 15.772-7.169 23.646-3.966s13.891 9.822 18.487 16.973a80.892 80.892 0 0 1 11.884 31.446c1.54 10.112 1.147 20.444 2.717 30.552a102.288 102.288 0 0 0 8.62 27.089c3.619 7.826 12.787 21.778 15.127 29.8-6.485 3.244-21.464-18.174-26.086-22.257z" class="cls-4" data-name="Path 743" transform="translate(37.701 259.316)"/>
            <g id="Group_1504" data-name="Group 1504" transform="translate(109.708 583.824)">
                <path id="Path_744" d="M122.5 437.819a.993.993 0 0 1-.563-.178c-11.105-7.747-25.592-33.493-35.789-53.729-3.986-7.909-5.021-16.9-6.02-25.584-.468-4.063-.952-8.264-1.731-12.268-1.838-9.445-5.494-22.532-15.976-27.118a.987.987 0 0 1 .794-1.808c11.328 4.959 15.2 18.669 17.121 28.55.794 4.081 1.281 8.322 1.753 12.42.981 8.517 1.994 17.326 5.822 24.923 14.27 28.315 26.755 47.135 35.156 53a.987.987 0 0 1-.567 1.8z" class="cls-1" data-name="Path 744" transform="translate(-61.834 -317.05)"/>
            </g>
            <g id="Group_1505" data-name="Group 1505" transform="translate(65.8 651.771)">
                <path id="Path_745" d="M69.048 354.346c-8.991-3.55-21-5.009-26.763 2.75-4.827 6.5-2.328 15.707 1.007 23.083 2.813 6.225 6.391 12.556 12.325 15.94 4.055 2.312 8.807 3.007 13.443 3.559a322.076 322.076 0 0 0 38.966 2.253c15.091-.043 33.369 6.12 45.852 15.53-16.019-29.782-54.568-51.161-84.83-63.115z" class="cls-4" data-name="Path 745" transform="translate(-39.594 -351.466)"/>
                <path id="Path_746" d="M46.523 362.731c11.445.488 22.994 1.291 33.979 4.541 11.234 3.323 54.446 23.152 61.2 31.592" class="cls-4" data-name="Path 746" transform="translate(-32.843 -340.492)"/>
            </g>
            <path id="Path_747" d="M178.112 392.673a76.157 76.157 0 0 0-53.273-34.009c-15.914-2.138-32.289.839-47.992-2.474a61.158 61.158 0 0 1-46.02-77.407c3.69-12.286 12.118-23.922 24.321-27.863 6.645-2.14 13.921-1.846 20.714-.209a57.569 57.569 0 0 1 17.464 7.548c12.286 7.777 22.2 19.748 29.667 32.455 6.772 11.551 23.482 29.541 34.846 41.24 6.667 6.835 11.51 11.51 11.51 11.51 7.8 9.687 4.151 37.656 8.763 49.209z" class="cls-4" data-name="Path 747" transform="translate(15.218 200.866)"/>
            <g id="Group_1506" data-name="Group 1506" transform="translate(65.831 486.317)">
                <path id="Path_748" d="M147.66 341.532a.971.971 0 0 1-.752-.349C118.07 307.141 72.19 284 40.191 269.549a.988.988 0 0 1 .811-1.8c32.174 14.527 78.315 37.813 107.409 72.159a.986.986 0 0 1-.752 1.625z" class="cls-1" data-name="Path 748" transform="translate(-39.609 -267.661)"/>
            </g>
            <path id="Path_749" d="M130.244 349.659s-56.987-46.188-69-95.771c12.286 7.777 22.2 19.749 29.667 32.455 6.772 11.551 23.482 29.541 34.846 41.24 1.343 6.205 2.831 13.48 4.487 22.076z" class="cls-5" data-name="Path 749" transform="translate(47.299 205.238)"/>
            <path id="Path_750" d="M553.3 289.761c-2.428 9.358-6.041 18.617-12.24 26.04a55.551 55.551 0 0 1-15.439 12.458 86.816 86.816 0 0 1-9.338 4.561 112.109 112.109 0 0 1-39.031 8.647c-19.506.73-39.564-3.573-58.28 1.994a57.423 57.423 0 0 0-23 13.326 55.956 55.956 0 0 0-10.325 13.05l2.547-16.189c4.718-17.413 9.536-35.142 19.17-50.4 6.219-9.891 14.294-18.5 22.882-26.416 13.721-12.675 28.943-23.829 45.744-31.983 13.583-6.594 28.666-11.233 43.671-9.4 14.985 1.816 29.713 11.293 34.392 25.646 3.002 9.22 1.699 19.289-.753 28.666z" class="cls-4" data-name="Path 750" transform="translate(363.354 186.88)"/>
            <g id="Group_1507" data-name="Group 1507" transform="translate(763.318 445.105)">
                <path id="Path_751" d="M393.887 330.872a.972.972 0 0 1-.553-.17.987.987 0 0 1-.265-1.37 119 119 0 0 1 60.59-45.992 236.73 236.73 0 0 1 25.894-6.521c6.8-1.441 13.832-2.932 20.6-4.886 18.343-5.289 31.484-13.607 39.057-24.718a.987.987 0 0 1 1.631 1.113c-7.84 11.5-21.346 20.08-40.141 25.5-6.837 1.972-13.9 3.471-20.738 4.922a235.459 235.459 0 0 0-25.679 6.462 117.022 117.022 0 0 0-59.583 45.226.98.98 0 0 1-.813.434z" class="cls-1" data-name="Path 751" transform="translate(-392.9 -246.786)"/>
            </g>
            <path id="Path_752" d="M400.652 414.513c.853-21.772 12.108-41.876 25.778-58.845 11.4-14.154 25.158-27.107 42.15-33.555 5.323-2.022 11.167-3.378 16.694-2.018s10.541 6.089 10.641 11.78c.087 4.8-3.139 9-6.533 12.4-11.17 11.188-25.608 18.365-39.14 26.544-23.259 14.055-45.363 32.818-54.592 58.379" class="cls-4" data-name="Path 752" transform="translate(373.098 269.207)"/>
            <g id="Group_1508" data-name="Group 1508" transform="translate(781.369 600.088)">
                <path id="Path_753" d="M403.03 390.853a.974.974 0 0 1-.4-.087.985.985 0 0 1-.5-1.3c14.57-32.5 52.158-60.681 76.033-64.167a1 1 0 0 1 1.119.835.988.988 0 0 1-.835 1.119c-23.367 3.411-60.2 31.085-74.516 63.018a.987.987 0 0 1-.901.582z" class="cls-1" data-name="Path 753" transform="translate(-402.043 -325.288)"/>
            </g>
            <path id="Path_754" d="M393.684 400.052c-.194-3.648 11.707-13.188 14.388-15.62a137.84 137.84 0 0 1 51.173-29.243c7.552-2.371 15.571-4.091 23.123-2.27s14.481 8.01 15.223 16.159c.719 7.9-4.582 15.63-11.346 19.452s-14.675 4.4-22.216 3.962c-11.656-.679-23.1-3.576-34.8-3.485s-28.118 1.27-35.545 11.045z" class="cls-4" data-name="Path 754" transform="translate(371.179 300.978)"/>
            <g id="Group_1509" data-name="Group 1509" transform="translate(775.997 670.102)">
                <path id="Path_755" d="M400.309 381.589a.988.988 0 0 1-.47-1.856c25.213-13.66 61.757-21.363 86.9-18.321a.987.987 0 0 1 .859 1.1.97.97 0 0 1-1.1.859c-24.771-3-60.827 4.612-85.722 18.1a1 1 0 0 1-.467.118z" class="cls-1" data-name="Path 755" transform="translate(-399.322 -360.752)"/>
            </g>
            <g id="Group_1510" data-name="Group 1510" transform="translate(102.397 149.089)">
                <path id="Path_756" d="M261.871 110.755c-2.519 1.664-4.138 4.375-5.449 7.1a132.527 132.527 0 0 0-4.525 13.17c-2.022 1.957-4.16 3.856-6.29 5.725a119.562 119.562 0 0 0-8.965 8.44c.059-.213.132-.42.188-.632a32.374 32.374 0 0 0-5.178-26.814 31.862 31.862 0 0 0-8.849-8.152c-1.67-3.2-6.665-10.233-19.113-12.489-5.145-.934-6.422.9-7.141 2.94a4.342 4.342 0 0 0 .661 3.688c1.431 2.239 3.95 3.5 6.393 4.553 3.344 1.437 13.411 2.4 17.81 2.764a29.955 29.955 0 0 1 8.645 7.861 30.38 30.38 0 0 1 4.859 25.162c-2.4 9.419-9.39 17.818-20.791 25.063 4.882-7.67 4.229-17.322.144-24.307-.166-3.481-1.495-10.937-9.212-17.711-2.478-2.176-5.54-3.976-8.839-3.958s-6.738 2.529-6.742 5.828 3.07 5.64 5.852 7.4c2.5 1.577 13.245 7.394 17.326 9.595 4.42 7.688 4.363 18.83-3.532 26.106a108.428 108.428 0 0 1-4.768 2.472c-14.633 7.088-30.479 12.017-45.8 16.787-7.368 2.294-14.989 4.665-22.392 7.249-5.962 2.083-12.793 4.663-19.883 7.9l-.038.018c-10.341 4.728-21.229 10.882-30.828 19.073-4.217-13.559-1.625-28.791 6.209-40.522 4.4-2.338 15.622-10.584 20.362-13.654a15.087 15.087 0 0 0 4.211-3.56 5.311 5.311 0 0 0 .8-5.226c-.977-2.075-2.6-4.148-6.7-4.138-7.137.014-9.613 2.359-13.083 5.947-9.056 9.364-8.282 17.174-7.552 20.06-8.051 12.4-10.588 28.41-5.877 42.549a89.052 89.052 0 0 0-9.07 9.285c-17.085 20.422-21.506 48.6-10.752 68.513 5.488 10.16 14.577 18.167 22.595 25.237l47.457 41.835a.987.987 0 0 0 1.3-1.481L87.862 328.6c-8.28-7.3-16.842-14.848-22.161-24.7-10.379-19.223-6.051-46.49 10.529-66.309 11.214-13.405 26.289-22.584 40.4-29.083a93.186 93.186 0 0 0 29.817 15.05 53.5 53.5 0 0 0 7.814 4.93c6.235 2.8 12.9 5.6 19.679 4.728 2.632-.336 5.5-1.532 6.377-4.035a5.894 5.894 0 0 0-1.98-6.092 14.076 14.076 0 0 0-6.134-2.766c-7.694-1.88-18.232-1.038-26.281.952a92.277 92.277 0 0 1-27.239-13.7c6.46-2.88 12.665-5.206 18.136-7.115 7.372-2.574 14.975-4.942 22.327-7.23 15.391-4.792 31.306-9.743 46.073-16.9a110.588 110.588 0 0 0 4.8-2.486 1.122 1.122 0 0 0 .136-.073c11.842-6.507 19.954-14.067 24.2-22.582h.006c3.113-4.657 7.915-8.874 12.558-12.953 2.049-1.8 4.1-3.623 6.065-5.5a25.566 25.566 0 0 0 15.745-8.695 15.928 15.928 0 0 0 3.5-6.474 7.082 7.082 0 0 0-1.909-6.811c-2.301-1.98-5.93-1.664-8.449-.001z" class="cls-6" data-name="Path 756" transform="translate(-58.131 -96.848)"/>
                <path id="Path_757" d="M518.542 191.277a31.57 31.57 0 0 0-.92-6.395c.535-3.488 1-10.067-1.749-15.719a15.241 15.241 0 0 0-7.348-7.3 14.167 14.167 0 0 0-4.774-1.425 6.269 6.269 0 0 0-4.667 1.4c-1.964 1.769-2.146 4.853-1.372 7.38 1.631 5.319 14.323 14.564 18.244 17.322a29.446 29.446 0 0 1 .612 4.817c.249 6.61-3.046 15.192-8.088 21.444a37.161 37.161 0 0 0-2.349-7.058c-7.824-17.194-26.717-24.574-37.286-27.44-13.67-3.712-28.05-4.582-41.957-5.423-2-.122-4-.243-6-.373-6.661-.43-13.782-.989-20.974-2.055a89.006 89.006 0 0 0-7.575-24.27c.928-3.654 2.448-13.95-5.986-24.439a17.571 17.571 0 0 0-8.43-5.139c-2.687-.517-5.747.13-7.5 2.229-2.357 2.819-1.587 7.242.578 10.211 2.857 3.915 14.659 13.536 19.158 17.142a87.891 87.891 0 0 1 7.709 23.952 103.142 103.142 0 0 1-23.772-6.519 61.7 61.7 0 0 1-24.2-17.731c.045-4.977-.736-21.138-12.422-26.277a5.143 5.143 0 0 0-5.474 1.216c-1.733 1.753-1.771 4.634-1.013 6.979 4.478 13.869 13.539 18 17.227 19.138a63.579 63.579 0 0 0 25.1 18.485c1.171.5 2.353.954 3.542 1.394a28.78 28.78 0 0 1-12.937 6.162c-5.222-3.524-26.51-16.842-33.272-4.624-8.545 15.445 19.942 15.058 32.629 6.746a30.138 30.138 0 0 0 15.707-7.522 114.969 114.969 0 0 0 19.415 4.626.952.952 0 0 0 .8.263.861.861 0 0 0 .28-.1c7.3 1.088 14.523 1.656 21.275 2.093 2 .13 4 .251 6.008.373 13.808.835 28.084 1.7 41.558 5.356 10.233 2.778 28.516 9.9 36.006 26.354 4.491 9.875 4.256 21.969-.292 34.356-4.876.811-15.528-3.99-21.014-7.85a275.531 275.531 0 0 1-13.772-10.343c-.3-3.86-1.988-15.464-11.4-23.733a20.5 20.5 0 0 0-21.156-3.406 10.849 10.849 0 0 0-4.527 3.4c-2.519 3.485-1.637 8.582.979 12s6.58 5.492 10.5 7.269c6.456 2.93 16.12 3.737 23.506 5.307a275.437 275.437 0 0 0 14.738 11.125c5.3 3.727 15.068 8.308 21.026 8.308.114 0 .219-.014.332-.018a79.029 79.029 0 0 1-9 16.2c-5.265 7.368-11.53 14.187-17.587 20.779-6.645 7.236-13.52 14.718-19.148 22.994-6.381 9.372-9.064 17.571-8.2 25.067 1.341 11.725 10.876 20.317 20.526 28.113a.988.988 0 0 0 1.242-1.536c-9.334-7.538-18.55-15.818-19.806-26.8-.8-7.007 1.773-14.769 7.873-23.733 5.55-8.158 12.375-15.587 18.971-22.769 6.1-6.637 12.4-13.5 17.743-20.969 10.8-15.113 15.381-31.262 13.131-45.007 4.839-5.459 9.879-15.283 9.552-24.027z" class="cls-6" data-name="Path 757" transform="translate(205.844 -77.773)"/>
            </g>
            <path id="Path_758" d="M521.52 290.058a86.846 86.846 0 0 1-9.338 4.561 112.11 112.11 0 0 1-39.031 8.647c-19.506.731-39.564-3.573-58.28 1.994a57.423 57.423 0 0 0-23 13.326c-.652.316-1.3.671-1.954 1.046-1.56-13.208 31.371-30.423 41.38-34.9a119.3 119.3 0 0 1 57.944-10.108c8.647.691 17.512 2.389 24.639 7.3a26.365 26.365 0 0 1 7.64 8.134z" class="cls-5" data-name="Path 758" transform="translate(367.459 225.081)"/>
            <path id="Path_759" d="M489.243 278.618c8.643.689 17.508 2.385 24.645 7.3s12.161 13.7 10.5 22.21c-1.939 9.911-12.185 16.359-22.209 17.577s-20.041-1.54-29.93-3.575a213.412 213.412 0 0 0-66.688-3.048c-5.538.622-10.793 1.72-15.644 4.553-1.558-13.216 31.387-30.423 41.4-34.909a119.327 119.327 0 0 1 57.926-10.108z" class="cls-4" data-name="Path 759" transform="translate(367.455 228.978)"/>
            <g id="Group_1511" data-name="Group 1511" transform="translate(764.951 521.723)">
                <path id="Path_760" d="M394.715 309.143a.987.987 0 0 1-.653-1.729c16.28-14.306 58.574-24.426 88.78-21.225 10.578 1.119 19.115 4.361 25.373 9.642a.987.987 0 0 1-1.273 1.508c-5.95-5.021-14.13-8.11-24.307-9.188-29.75-3.143-71.332 6.742-87.268 20.747a.989.989 0 0 1-.652.245z" class="cls-1" data-name="Path 760" transform="translate(-393.728 -285.594)"/>
            </g>
            <g id="Group_1512" data-name="Group 1512" transform="translate(734.403 381.475)">
                <path id="Path_761" d="M434.236 284.609a.987.987 0 0 1 0-1.974l7.9-.016a.987.987 0 0 1 0 1.974l-7.9.016zm15.794-.034a.987.987 0 0 1 0-1.974l7.9-.016a.987.987 0 0 1 0 1.974l-7.9.016zm15.794-.032a.987.987 0 0 1 0-1.974l7.9-.016a.987.987 0 0 1 0 1.974l-7.9.016zm15.794-.034a.987.987 0 0 1 0-1.974l7.9-.016a.987.987 0 0 1 0 1.974l-7.9.016zm15.794-.032a.987.987 0 0 1 0-1.974l7.9-.018a.987.987 0 0 1 0 1.974l-7.9.018zm15.794-.034a.987.987 0 0 1 0-1.974l7.9-.016a.987.987 0 0 1 0 1.974l-7.9.016zm15.794-.03a.987.987 0 0 1 0-1.974l7.9-.016a.987.987 0 0 1 0 1.974l-7.9.016zm15.763-.511a.987.987 0 0 1-.164-1.96 32.615 32.615 0 0 0 7.334-2.162.987.987 0 1 1 .774 1.816 34.748 34.748 0 0 1-7.777 2.292.983.983 0 0 1-.167.012zm14.39-6.14a.986.986 0 0 1-.586-1.781 33.268 33.268 0 0 0 5.583-5.228.988.988 0 0 1 1.508 1.275 35.19 35.19 0 0 1-5.919 5.54.985.985 0 0 1-.586.194zm10.114-11.946a1.016 1.016 0 0 1-.448-.107.986.986 0 0 1-.43-1.329 32.765 32.765 0 0 0 2.642-7.174.988.988 0 1 1 1.921.46 34.7 34.7 0 0 1-2.805 7.611.987.987 0 0 1-.88.539zm3.662-16.2h-.987l.987-.213h-.987a33.094 33.094 0 0 0-.847-7.4.987.987 0 1 1 1.923-.444 35.01 35.01 0 0 1 .9 7.836zm-3.538-14.254a.985.985 0 0 1-.883-.549 33.057 33.057 0 0 0-4.177-6.4.986.986 0 1 1 1.514-1.264 34.849 34.849 0 0 1 4.43 6.787.986.986 0 0 1-.444 1.323.968.968 0 0 1-.439.104zm-10.01-12.029a.981.981 0 0 1-.594-.2 32.853 32.853 0 0 0-6.6-3.862.987.987 0 0 1 .792-1.808 34.749 34.749 0 0 1 7 4.093.986.986 0 0 1-.594 1.775zm-14.337-6.266a.914.914 0 0 1-.178-.016 33.228 33.228 0 0 0-5.866-.521h-1.818a.987.987 0 0 1 0-1.974h1.749a35.358 35.358 0 0 1 6.29.553.987.987 0 0 1-.174 1.958zm-165.8-.207a.987.987 0 0 1 0-1.974l7.9-.016a.987.987 0 0 1 0 1.974l-7.9.016zm15.794-.032a.987.987 0 0 1 0-1.974l7.9-.018a.987.987 0 0 1 0 1.974l-7.9.018zm15.794-.034a.987.987 0 0 1 0-1.974l7.9-.016a.987.987 0 0 1 0 1.974l-7.9.016zm15.794-.032a.987.987 0 0 1 0-1.974l7.9-.016a.987.987 0 0 1 0 1.974l-7.9.016zm15.794-.034a.987.987 0 0 1 0-1.974l7.9-.016a.987.987 0 0 1 0 1.974l-7.9.016zm15.794-.032a.987.987 0 0 1 0-1.974l7.9-.018a.987.987 0 0 1 0 1.974l-7.9.018zm15.794-.034a.987.987 0 0 1 0-1.974l7.9-.016a.987.987 0 0 1 0 1.974l-7.9.016zm15.794-.034a.987.987 0 0 1 0-1.974l7.9-.016a.987.987 0 0 1 0 1.974l-7.9.016zm15.794-.032a.987.987 0 0 1 0-1.974l7.9-.016a.987.987 0 0 1 0 1.974l-7.9.016zm15.794-.032a.987.987 0 0 1 0-1.974l7.9-.018a.987.987 0 0 1 0 1.974l-7.9.018z" class="cls-3" data-name="Path 761" transform="translate(-378.254 -214.556)"/>
            </g>
            <g id="Group_1513" data-name="Group 1513" transform="translate(120.43 499.055)">
                <path id="Path_762" d="M89.316 314.617a.987.987 0 0 1 0-1.974l7.9-.016a.987.987 0 0 1 0 1.974l-7.9.016zm15.794-.032a.987.987 0 0 1 0-1.974l7.9-.018a.987.987 0 0 1 0 1.974l-7.9.018zm-23.592-.89a1.019 1.019 0 0 1-.3-.047 19.99 19.99 0 0 1-7.159-4.089.987.987 0 1 1 1.309-1.477 18.08 18.08 0 0 0 6.458 3.688.987.987 0 0 1-.3 1.925zm-11.5-10.169a.991.991 0 0 1-.9-.571 20 20 0 0 1-1.86-8.033.985.985 0 0 1 .965-1.007 1 1 0 0 1 1.009.965 17.971 17.971 0 0 0 1.676 7.242.988.988 0 0 1-.48 1.311.973.973 0 0 1-.407.092zm-.332-15.344a.935.935 0 0 1-.375-.075.984.984 0 0 1-.537-1.287 20.046 20.046 0 0 1 4.635-6.82.986.986 0 1 1 1.372 1.417 18.119 18.119 0 0 0-4.178 6.152.99.99 0 0 1-.914.613zm11.036-10.667a.988.988 0 0 1-.346-1.913 20.086 20.086 0 0 1 6.977-1.26h1.121a.987.987 0 0 1 0 1.974h-1.113a18.106 18.106 0 0 0-6.292 1.137.992.992 0 0 1-.343.062zm15.65-1.216a.987.987 0 0 1 0-1.974l7.9-.016a.987.987 0 0 1 0 1.974l-7.9.016zm15.794-.032a.987.987 0 0 1 0-1.974l7.9-.018a.987.987 0 0 1 0 1.974l-7.9.018zm15.794-.032a.987.987 0 0 1 0-1.974l7.9-.018a.987.987 0 0 1 0 1.974l-7.9.018zm15.794-.033a.987.987 0 0 1 0-1.974l7.9-.018a.987.987 0 0 1 0 1.974l-7.9.018zm15.794-.034a.987.987 0 0 1 0-1.974l7.9-.016a.987.987 0 0 1 0 1.974l-7.9.016zm15.794-.032a.987.987 0 0 1 0-1.974l7.9-.016a.987.987 0 0 1 0 1.974l-7.9.016zm15.794-.034a.987.987 0 0 1 0-1.974l7.9-.016a.987.987 0 0 1 0 1.974l-7.9.016z" class="cls-3" data-name="Path 762" transform="translate(-67.265 -274.113)"/>
            </g>
            <g id="Group_1517" data-name="Group 1517" transform="translate(45.314 552.248)">
                <g id="Group_1514" data-name="Group 1514" transform="translate(0 6.956)">
                    <path id="Path_763" d="M67.48 389.936c-.938 0-1.733-.016-2.515-.047a.99.99 0 0 1-.948-1.027.979.979 0 0 1 1.027-.948c.756.032 1.526.045 2.308.045l5.607-.008a.987.987 0 0 1 0 1.974zm13.439-.028a.987.987 0 0 1 0-1.974l7.938-.018a.987.987 0 0 1 0 1.974l-7.937.018zm15.865-.034a.987.987 0 0 1 0-1.974l7.925-.016a.987.987 0 0 1 0 1.974l-7.923.016zm15.843-.03a.987.987 0 0 1 0-1.974l7.917-.016a.987.987 0 0 1 0 1.974l-7.915.016zm15.83-.034a.987.987 0 0 1 0-1.974l7.913-.016a.987.987 0 1 1 0 1.974l-7.911.016zm15.824-.034a.987.987 0 0 1 0-1.974l7.911-.014a.987.987 0 0 1 0 1.974l-7.909.014zm15.82-.032a.987.987 0 0 1 0-1.974l7.909-.016a.987.987 0 0 1 0 1.974l-7.909.016zm15.816-.034a.987.987 0 0 1 0-1.974l7.909-.016a.987.987 0 0 1 0 1.974l-7.909.016zm15.818-.032a.987.987 0 0 1 0-1.974l7.907-.016a.987.987 0 1 1 0 1.974l-7.9.016zm15.812-.032a.987.987 0 0 1 0-1.974l7.907-.016a.987.987 0 0 1 0 1.974l-7.907.016zm15.812-.036a.987.987 0 0 1 0-1.974l7.907-.014a.987.987 0 0 1 0 1.974l-7.9.014zm15.81-.032a.987.987 0 0 1 0-1.974l7.9-.016a.987.987 0 0 1 0 1.974l-7.9.016zm15.81-.034a.987.987 0 0 1 0-1.974l7.9-.016a.987.987 0 0 1 0 1.974l-7.9.016zm15.81-.03a.987.987 0 0 1 0-1.974l7.9-.016a.987.987 0 0 1 0 1.974l-7.9.016zm15.808-.036a.987.987 0 0 1 0-1.974l7.9-.016a.987.987 0 0 1 0 1.974l-7.9.016zm15.808-.034a.987.987 0 0 1 0-1.974l7.9-.014a.987.987 0 0 1 0 1.974l-7.9.014zm15.808-.03a.987.987 0 0 1 0-1.974l7.9-.016a.987.987 0 0 1 0 1.974l-7.9.016zm15.806-.036a.987.987 0 1 1 0-1.974l7.9-.016a.987.987 0 0 1 0 1.974l-7.9.016zm15.808-.03a.987.987 0 0 1 0-1.974l7.9-.016a.987.987 0 0 1 0 1.974l-7.9.016zm15.808-.034a.987.987 0 0 1 0-1.974l7.9-.016a.987.987 0 0 1 0 1.974l-7.9.016zm15.774-.034a.987.987 0 0 1 0-1.974l7.885-.014a.987.987 0 0 1 0 1.974l-7.885.014zm15.784-.03a.987.987 0 0 1 0-1.974l7.907-.016a.987.987 0 0 1 0 1.974l-7.907.016zm15.83-.036a.987.987 0 0 1 0-1.974l7.933-.016a.987.987 0 0 1 0 1.974l-7.933.016zm15.835-.032a.987.987 0 0 1 0-1.974l7.9-.016a.987.987 0 0 1 0 1.974l-7.9.016zm15.826-.033l-.02-.987.016-.987 7.887-.016a.987.987 0 0 1 0 1.974zm15.814-.032l-.028-.987.026-.987 7.877-.016a.987.987 0 0 1 0 1.974zm15.8-.034l-.02-.987.016-.987 7.885-.016a.987.987 0 0 1 0 1.974zm15.826-.034l-.037-.987.033-.987 7.867-.016a.987.987 0 0 1 0 1.974zm15.822-.032l-.053-.987.049-.987 7.852-.016a.987.987 0 0 1 0 1.974zm-450.77-.022a1.051 1.051 0 0 1-.19-.018 42.79 42.79 0 0 1-7.747-2.253.986.986 0 1 1 .734-1.83 41.014 41.014 0 0 0 7.39 2.144.987.987 0 0 1-.188 1.956zm466.6-.01l-.071-.987.067-.987 7.836-.016a.987.987 0 0 1 0 1.974zm15.808-.035l-.073-.987.069-.987 7.834-.014a.987.987 0 0 1 0 1.974zm15.824-.03l-.089-.987.085-.987 7.818-.016a.987.987 0 0 1 0 1.974zm15.719-.034a.987.987 0 0 1 0-1.974l7.9-.018a.987.987 0 0 1 0 1.974l-7.9.018zm15.81-.034a.987.987 0 0 1 0-1.974l7.9-.016a.987.987 0 0 1 0 1.974l-7.9.016zm15.808-.032a.987.987 0 0 1 0-1.974l7.9-.018a.987.987 0 0 1 0 1.974l-7.9.018zm15.812-.034a.987.987 0 0 1 0-1.974l7.907-.018a.987.987 0 0 1 0 1.974l-7.9.018zm15.81-.034a.987.987 0 0 1 0-1.974l7.9-.018a.987.987 0 0 1 0 1.974l-7.9.018zm15.814-.034a.987.987 0 0 1 0-1.974l7.907-.018a.987.987 0 0 1 0 1.974l-7.907.018zm15.812-.032a.987.987 0 0 1 0-1.974l7.907-.016a.987.987 0 0 1 0 1.974l-7.907.016zm15.818-.032a.987.987 0 0 1 0-1.974l7.909-.018a.987.987 0 0 1 0 1.974l-7.909.018zm15.816-.032a.987.987 0 0 1 0-1.974l7.911-.018a.987.987 0 0 1 0 1.974l-7.911.018zm15.822-.032a.987.987 0 0 1 0-1.974l7.913-.018a.987.987 0 0 1 0 1.974l-7.913.018zm15.828-.034a.987.987 0 0 1 0-1.974l7.915-.018a.987.987 0 0 1 0 1.974l-7.915.018zm15.836-.034a.987.987 0 0 1 0-1.974l7.921-.016a.987.987 0 0 1 0 1.974l-7.921.016zm15.847-.034a.987.987 0 0 1 0-1.974l7.935-.016a.987.987 0 0 1 0 1.974l-7.936.016zm15.893-.034a.987.987 0 0 1 0-1.974l7.958-.016a.987.987 0 0 1 0 1.974l-7.958.016zm15.731-1.171a.988.988 0 0 1-.3-1.929 20.789 20.789 0 0 0 6.622-3.506.987.987 0 1 1 1.226 1.546 22.785 22.785 0 0 1-7.247 3.842.991.991 0 0 1-.312.064zm-749.926-4.19a.989.989 0 0 1-.563-.178 31.539 31.539 0 0 1-6.025-5.449.987.987 0 1 1 1.5-1.279 29.627 29.627 0 0 0 5.65 5.109.987.987 0 0 1-.565 1.8zm762.042-5.368a1.008 1.008 0 0 1-.513-.142.993.993 0 0 1-.332-1.358 22.927 22.927 0 0 0 2.786-7 1 1 0 0 1 1.177-.752.989.989 0 0 1 .752 1.177 24.9 24.9 0 0 1-3.026 7.6.987.987 0 0 1-.844.475zm-772.113-6.547a.985.985 0 0 1-.9-.576 29.435 29.435 0 0 1-2.349-7.8.988.988 0 0 1 1.953-.3 27.454 27.454 0 0 0 2.189 7.277.987.987 0 0 1-.9 1.4zm775.453-8.608a.984.984 0 0 1-.979-.882 22.331 22.331 0 0 0-2.02-7.248.988.988 0 1 1 1.785-.849 24.253 24.253 0 0 1 2.2 7.887.985.985 0 0 1-.877 1.086 1.013 1.013 0 0 1-.109.007zM30.2 355.775a.915.915 0 0 1-.126-.008.988.988 0 0 1-.853-1.106 27.815 27.815 0 0 1 2.191-7.854.987.987 0 0 1 1.8.806 25.8 25.8 0 0 0-2.035 7.3.989.989 0 0 1-.977.862zm771.143-7.147a.98.98 0 0 1-.683-.276 22.479 22.479 0 0 0-6.235-4.215.986.986 0 1 1 .823-1.793 24.414 24.414 0 0 1 6.779 4.584.988.988 0 0 1-.685 1.7zm-14.041-6.653a.9.9 0 0 1-.162-.012 37.841 37.841 0 0 0-6.1-.476H779.428a.987.987 0 0 1 .006-1.974h1.515a40.309 40.309 0 0 1 6.513.5.987.987 0 0 1-.158 1.96zM36.6 341.6a.974.974 0 0 1-.661-.255.987.987 0 0 1-.073-1.394 26.036 26.036 0 0 1 6.359-5.131.988.988 0 0 1 .985 1.714 23.942 23.942 0 0 0-5.877 4.74.985.985 0 0 1-.733.326zm734.949-.292h-.049a191.931 191.931 0 0 1-7.921-.5.989.989 0 0 1-.9-1.068 1.009 1.009 0 0 1 1.068-.9c2.517.215 5.153.383 7.838.5a.988.988 0 0 1-.041 1.974zm-15.727-1.378a1.065 1.065 0 0 1-.138-.01 118.537 118.537 0 0 1-7.844-1.346.987.987 0 1 1 .4-1.933c2.426.5 5.021.95 7.715 1.325a.987.987 0 0 1-.134 1.964zm-15.437-3.248a1.007 1.007 0 0 1-.282-.042 66.206 66.206 0 0 1-7.532-2.724.987.987 0 1 1 .79-1.808 63.664 63.664 0 0 0 7.3 2.639.988.988 0 0 1-.28 1.935zm-690.35-2.894a.987.987 0 0 1-.229-1.947 34.814 34.814 0 0 1 8.051-.924.987.987 0 0 1 0 1.974 32.969 32.969 0 0 0-7.595.869.925.925 0 0 1-.23.028zm676.019-3.571a.993.993 0 0 1-.565-.176 20.885 20.885 0 0 1-5.838-5.8.986.986 0 1 1 1.668-1.052 18.971 18.971 0 0 0 5.3 5.23.987.987 0 0 1-.565 1.8zm-6.835-13.032a.943.943 0 0 1-.292-.045.987.987 0 0 1-.651-1.234 12.572 12.572 0 0 1 5.3-6.509.988.988 0 1 1 1.1 1.643 10.656 10.656 0 0 0-4.517 5.449.985.985 0 0 1-.943.695zm12.1-9.168a.987.987 0 0 1-.275-1.935 45.873 45.873 0 0 1 7.921-1.5.987.987 0 1 1 .207 1.962 44.253 44.253 0 0 0-7.581 1.431.987.987 0 0 1-.279.041z" class="cls-1" data-name="Path 763" transform="translate(-29.217 -304.579)"/>
                </g>
                <g id="Group_1515" data-name="Group 1515" transform="translate(18.815 24.825)">
                    <path id="Path_764" d="M57.524 321.5a9.455 9.455 0 1 1-10.91-7.731 9.456 9.456 0 0 1 10.91 7.731z" class="cls-1" data-name="Path 764" transform="translate(-38.747 -313.63)"/>
                </g>
                <g id="Group_1516" data-name="Group 1516" transform="translate(715.893)">
                    <path id="Path_765" d="M410.606 308.921a9.454 9.454 0 1 1-10.91-7.729 9.452 9.452 0 0 1 10.91 7.729z" class="cls-1" data-name="Path 765" transform="translate(-391.831 -301.056)"/>
                </g>
            </g>
            <path id="Path_766" d="M707.2 596.976L113.165 598.2a14.351 14.351 0 0 1-14.379-14.321l-.813-393.535a14.352 14.352 0 0 1 14.321-14.38l594.032-1.226a14.35 14.35 0 0 1 14.374 14.325l.814 393.534a14.35 14.35 0 0 1-14.314 14.379z" class="cls-5" data-name="Path 766" transform="translate(83.083 128.13)"/>
            <path id="Path_767" d="M701.305 593.169L107.273 594.4a14.351 14.351 0 0 1-14.379-14.321l-.813-393.539a14.352 14.352 0 0 1 14.319-14.381l594.032-1.226a14.351 14.351 0 0 1 14.378 14.321l.813 393.535a14.352 14.352 0 0 1-14.318 14.38z" class="cls-3" data-name="Path 767" transform="translate(77.342 124.419)"/>
            <path id="Path_768" d="M699.317 170.936l-591.491 1.22a15.621 15.621 0 0 0-15.589 15.654l.028 13.583L715 200.108l-.028-13.583a15.621 15.621 0 0 0-15.655-15.589z" class="cls-1" data-name="Path 768" transform="translate(77.494 124.421)"/>
            <path id="Path_769" d="M108.6 579.47l89.371-.185-.811-393.031-104.99.216.78 377.43a15.611 15.611 0 0 0 15.65 15.57z" class="cls-1" data-name="Path 769" transform="translate(77.429 139.344)"/>
            <path id="Path_770" d="M701.379 593.169L107.347 594.4a14.35 14.35 0 0 1-14.38-14.321l-.812-393.539a14.348 14.348 0 0 1 14.319-14.379l594.032-1.226a14.348 14.348 0 0 1 14.38 14.319l.811 393.535a14.348 14.348 0 0 1-14.318 14.38z" class="cls-3" data-name="Path 770" transform="translate(77.415 124.421)"/>
            <path id="Rectangle_141" d="M2.786 0h74.3a2.787 2.787 0 0 1 2.787 2.787V8.9a2.787 2.787 0 0 1-2.787 2.787H2.787A2.787 2.787 0 0 1 0 8.9V2.786A2.786 2.786 0 0 1 2.786 0z" class="cls-3" data-name="Rectangle 141" transform="rotate(-.118 328931.293 -89941.046)"/>
            <rect id="Rectangle_142" width="78.8" height="78.8" class="cls-1" data-name="Rectangle 142" rx="5.106" transform="rotate(-.118 166867.4 -88765.849)"/>
            <path id="Rectangle_143" d="M3.639 0h211.387a3.64 3.64 0 0 1 3.64 3.64v7.983a3.64 3.64 0 0 1-3.64 3.64H3.64A3.64 3.64 0 0 1 0 11.623V3.639A3.639 3.639 0 0 1 3.639 0z" class="cls-1" data-name="Rectangle 143" transform="translate(291.564 582.956)"/>
            <rect id="Rectangle_144" width="175.817" height="15.263" class="cls-1" data-name="Rectangle 144" rx="3.64" transform="rotate(-.118 170157.335 -156468.64)"/>
            <rect id="Rectangle_145" width="229.624" height="15.263" class="cls-1" data-name="Rectangle 145" rx="3.64" transform="translate(524.008 513.489)"/>
            <rect id="Rectangle_146" width="218.665" height="15.263" class="cls-1" data-name="Rectangle 146" rx="3.64" transform="rotate(-.118 298526.105 -141295.33)"/>
            <rect id="Rectangle_147" width="218.665" height="15.263" class="cls-1" data-name="Rectangle 147" rx="3.64" transform="rotate(-.118 313847.898 -141311.113)"/>
            <rect id="Rectangle_148" width="229.624" height="112.162" class="cls-1" data-name="Rectangle 148" rx="6.012" transform="rotate(-.118 276912.694 -254207.83)"/>
            <path id="Path_771" d="M114.5 181.279a5.032 5.032 0 1 1-5.042-5.022 5.032 5.032 0 0 1 5.042 5.022z" class="cls-1" data-name="Path 771" transform="translate(89.383 129.606)"/>
            <circle id="Ellipse_310" cx="5.032" cy="5.032" r="5.032" class="cls-1" data-name="Ellipse 310" transform="translate(215.128 305.819)"/>
            <path id="Path_772" d="M136.087 181.234a5.032 5.032 0 1 1-5.042-5.022 5.033 5.033 0 0 1 5.042 5.022z" class="cls-1" data-name="Path 772" transform="translate(110.41 129.562)"/>
            <circle id="Ellipse_311" cx="14.552" cy="14.552" r="14.552" class="cls-1" data-name="Ellipse 311" transform="rotate(-84.28 347.064 28.296)"/>
            <path id="Rectangle_149" d="M1.373 0h67.132a1.373 1.373 0 0 1 1.373 1.373v3.012A1.374 1.374 0 0 1 68.5 5.759H1.374A1.374 1.374 0 0 1 0 4.385V1.373A1.373 1.373 0 0 1 1.373 0z" class="cls-3" data-name="Rectangle 149" transform="rotate(-.118 208305.81 -91534.557)"/>
            <path id="Rectangle_150" d="M1.374 0H68.5a1.374 1.374 0 0 1 1.374 1.374v3.012A1.374 1.374 0 0 1 68.5 5.759H1.373A1.373 1.373 0 0 1 0 4.386V1.374A1.374 1.374 0 0 1 1.374 0z" class="cls-3" data-name="Rectangle 150" transform="translate(188.982 441.115)"/>
            <path id="Path_773" d="M195.2 302.7l-18.228.184.134 76.362-15.727.031a10.049 10.049 0 0 1-10.071-10.027l-.292-141.211a10.158 10.158 0 0 1 10.136-10.177l33.848-.085z" class="cls-1" data-name="Path 773" transform="translate(134.761 170.057)"/>
            <path id="Path_774" d="M313.439 217.662v1.974a9.906 9.906 0 0 1 9.891 9.873l.284 137.679a9.892 9.892 0 0 1-9.873 9.915l-150.571.31a9.909 9.909 0 0 1-9.893-9.873l-.284-137.679a9.9 9.9 0 0 1 9.875-9.915l150.549-.31.022-1.974m0 0h-.026l-150.549.31a11.868 11.868 0 0 0-11.844 11.893l.284 137.679a11.868 11.868 0 0 0 11.867 11.844h.026l150.549-.31a11.868 11.868 0 0 0 11.844-11.893l-.29-137.679a11.868 11.868 0 0 0-11.867-11.844z" class="cls-1" data-name="Path 774" transform="translate(134.763 169.945)"/>
            <rect id="Rectangle_151" width="229.624" height="126.212" class="cls-1" data-name="Rectangle 151" rx="6.012" transform="rotate(12.735 -1220.24 2472.513)"/>
            <g id="Group_1519" data-name="Group 1519" transform="translate(270.392 736.954)">
                <path id="Path_775" d="M181.023 430.441l-28.1.058-6.876-35.8 41.7-.086z" class="cls-7" data-name="Path 775" transform="translate(-140.473 -394.613)"/>
                <g id="Group_1518" data-name="Group 1518" transform="translate(0 .325)">
                    <path id="Path_776" d="M149.85 416.145a7.515 7.515 0 0 1-1.66-.172 5.868 5.868 0 0 1-4.318-3.236c-2.865-6.073 4.677-17.452 4.971-17.96l.393 2.049c-.067.118-6.624 9.9-4.049 15.356a4.46 4.46 0 0 0 3.331 2.466 6.461 6.461 0 0 0 1.412.144c10.12-.018 27.421-18.882 27.61-19.1.707-.849 2.03-.049 1.56.667-.793.911-18.372 19.763-29.25 19.786z" class="cls-7" data-name="Path 776" transform="translate(-143.224 -394.778)"/>
                </g>
            </g>
            <path id="Path_777" d="M335.364 157.652c-39.935-1.528-94.916 28.007-75.413 100.223-.422 6.106 3.234 10.464 7.121 9.271s.462-12.766.462-12.766c6.649-53.692 19.087-62.981 40.2-62.787l49.534-.1c12.242 1.8 34.5 10.367 37.835 53.346l12.331 2.278c.966-31.049-6.552-86.96-72.07-89.465z" class="cls-5" data-name="Path 777" transform="translate(236.936 111.424)"/>
            <path id="Path_778" d="M335.364 154.466c-39.935-1.528-94.916 28.007-75.413 100.223l7.583-3.494c6.649-53.692 19.087-62.981 40.2-62.787l49.534-.1c12.242 1.8 35.09 12.669 38.429 55.648l11.737-.024c.966-31.05-6.552-86.961-72.07-89.466z" class="cls-8" data-name="Path 778" transform="translate(236.936 108.321)"/>
            <path id="Path_779" d="M294.936 155.033l-5.931 13.038s.707 7.342 7.913 7.19 8.167-3.481 8.167-3.481l.94-14.969z" class="cls-9" data-name="Path 779" transform="translate(269.197 108.928)"/>
            <path id="Path_780" d="M326.419 159.388c-6.762 11.954-9.759 15.674-18.6 17.47-11.449 2.328-24.289-5.394-18.321-24.428 4.867-15.52 12.233-13.129 19.448-12.542s24.778 6.584 17.473 19.5z" class="cls-9" data-name="Path 780" transform="translate(268.204 93.701)"/>
            <path id="Path_781" d="M300.4 154.486c-1.8-.936-4.108-.14-5.5 1.331a6.03 6.03 0 0 0-1.516 5.763 5.243 5.243 0 0 0-4.934 5.51c-1.889-4.41-.869-9-1.242-13.514s.12-9.423 3.046-12.882a14.7 14.7 0 0 1 4.387-3.38 22.681 22.681 0 0 1 20.37-.288 12.359 12.359 0 0 0 9.165 1.607c8.724-2.109 13.828 3.791 8.586 9.317 1.684.608 3.53 1.358 4.292 2.977a1.341 1.341 0 0 1 .036 1.309 1.516 1.516 0 0 1-.8.5 9.507 9.507 0 0 1-4.59.365c.588.5 3.826.695 4.8 2.578 2.6 5.011-7.7 2.48-9.273 1.978 1.793.336 6.5 4.091 4.993 6.669-.3.507-6.651 4.211-13.33-3.548a12.181 12.181 0 0 0-5.792-4.083c-1.8-.482-3.694.186-5.441.843-1.275.48-4.533 2.462-5.467 1.281-1.026-1.298.295-3.296-1.79-4.333z" class="cls-10" data-name="Path 781" transform="translate(267.341 89.169)"/>
            <path id="Path_782" d="M328.529 199.948c-1.769 6.093-3.56 6.7-1.413 7.668s3.884-2.444 3.884-2.444l9.907 1.97s-2.235-6.436-3.795-7.212-8.583.018-8.583.018z" class="cls-9" data-name="Path 782" transform="translate(305.371 152.337)"/>
            <path id="Path_783" d="M265.531 203.433c1.293 3.214 1.65 3.236 3.453 7.1 3.447 7.386-4.626 19.061-9.636 6.314-1.374-3.494-1.4-9.919-1.4-9.919z" class="cls-9" data-name="Path 783" transform="translate(238.94 156.082)"/>
            <g id="Group_1521" data-name="Group 1521" transform="translate(552.585 222.701)">
                <g id="Group_1520" data-name="Group 1520">
                    <path id="Path_784" d="M301.251 137.856c6.768.367 15.105-4.41 20.408 1.726.488.565 1.475-.184 1.042-.8-5.07-7.277-14.487-1.864-21.45-2.047-.727-.02-.719 1.086 0 1.125z" class="cls-10" data-name="Path 784" transform="translate(-271.984 -133.324)"/>
                    <path id="Path_785" d="M314.189 134.931c-4.63.8-9.091-1.374-13.727-.646a20.17 20.17 0 0 0-9.98 5c-.73.634.225 1.877 1.036 1.344 3.994-2.63 7.812-4.9 12.8-4.531 3.613.267 6.683 1.333 10.268.263a.741.741 0 0 0-.393-1.427z" class="cls-10" data-name="Path 785" transform="translate(-282.202 -134.134)"/>
                    <path id="Path_786" d="M291.811 137.776a10.853 10.853 0 0 0-5.522 8.631c-.276 2.8-.361 9.228 2.466 10.807a.689.689 0 0 0 .831-1.078c-1.81-1.838-1.972-6.793-1.842-9.129a10.713 10.713 0 0 1 4.535-8.434c.462-.347.051-1.121-.468-.8z" class="cls-10" data-name="Path 786" transform="translate(-286.16 -130.661)"/>
                    <path id="Path_787" d="M319.1 145.468c-1.674-2.906-5.962-5.475-9.259-3.631a.591.591 0 0 0 .3 1.092 14.377 14.377 0 0 1 4.174.274 7.275 7.275 0 0 1 3.9 2.786c.379.535 1.23.065.892-.521z" class="cls-10" data-name="Path 787" transform="translate(-263.362 -127.236)"/>
                </g>
            </g>
            <path id="Path_788" d="M203.116 295.917c20.937 7.692 39.122 31.716 34.95 49.175-4.713 19.721-18.319 28.228-18.319 28.228l-4.286-7.919s10.876-17.006 9.932-25.036c-1.514-12.862-17.754-21.452-17.754-21.452z" class="cls-8" data-name="Path 788" transform="translate(185.519 246.185)"/>
            <path id="Path_789" d="M184.937 408.65s-12.86 5.192-16.074 8.124l25.472-.049-.018-8.094z" class="cls-10" data-name="Path 789" transform="translate(152.148 355.997)"/>
            <path id="Path_790" d="M211.958 408.389s3.65 4.231 4.322 8.468l-17.379.036a20.353 20.353 0 0 1 3.242-8.485z" class="cls-10" data-name="Path 790" transform="translate(181.412 355.762)"/>
            <path id="Path_791" d="M216.66 480.139l-11.865.02c.237-13.978-2.646-61.617-5.429-97.232-1.639-20.888-3.257-37.669-4.205-41.065l6.357-1.4 23.982-5.332c4.111 18.755-5.366 104.87-8.84 145.009z" class="cls-7" data-name="Path 791" transform="translate(177.768 284.389)"/>
            <path id="Path_792" d="M191.621 338.65c-9.256 14.58-11.648 119.922-15.521 139.45l11.253.64A1021.379 1021.379 0 0 1 227.8 337.655z" class="cls-11" data-name="Path 792" transform="translate(159.198 286.849)"/>
            <path id="Path_793" d="M213.975 337.65a963.975 963.975 0 0 0-14.61 42.822c-1.639-20.888-3.257-37.669-4.205-41.064l6.357-1.4z" class="cls-5" data-name="Path 793" transform="translate(177.768 286.844)"/>
            <path id="Path_794" d="M191.621 338.65c-9.256 14.58-11.648 119.922-15.521 139.45l11.253.64A1021.379 1021.379 0 0 1 227.8 337.655z" class="cls-7" data-name="Path 794" transform="translate(159.198 286.849)"/>
            <path id="Path_795" d="M188.246 280.762s-7.2 27.452 10.791 27.417l-1.066 7.015 13.666 1.495-2.954-9.775s2.7-17.263 2.882-20.376c.34-5.823-15.965-16.08-23.319-5.776z" class="cls-9" data-name="Path 795" transform="translate(169.644 227.134)"/>
            <g id="Group_1522" data-name="Group 1522" transform="translate(291.637 468.576)">
                <path id="Rectangle_152" d="M0 0h5.303v22.406H0z" class="cls-10" data-name="Rectangle 152" transform="rotate(-.113 4346.477 -8336.058)"/>
                <rect id="Rectangle_153" width="38.162" height="8.513" class="cls-12" data-name="Rectangle 153" rx="1.954" transform="rotate(-.113 38.028 .038)"/>
            </g>
            <path id="Path_796" d="M162.933 284.247c-.144-5.084-4.335-3.753-2.026-12.043 1.427-5.129 12.015.821 10.7 4.377s-2.835 9.178-2.835 9.178z" class="cls-9" data-name="Path 796" transform="translate(143.722 221.136)"/>
            <path id="Path_797" d="M226.018 313.785c-26.911 1.785-28.682 10.853-40.725 9.433-17.824-2.1-14.7-35.2-12.5-47.07l-10.645.022s-19.19 75.4 41.42 61.461c-2.328 13.208 12.744 34.779-1.87 60.957 23.008 6.249 44.476 7.783 62.858-.124-3.218-4.335 6.6-48.146-12.623-79.685-3.752-6.157-23.947-5.124-25.915-4.994z" class="cls-13" data-name="Path 797" transform="translate(142.794 226.925)"/>
            <path id="Path_798" d="M226.018 313.785c-26.911 1.785-28.682 10.853-40.725 9.433-17.824-2.1-14.7-35.2-12.5-47.07l-10.645.022s-19.19 75.4 41.42 61.461c-2.328 13.208 12.744 34.779-1.87 60.957 23.008 6.249 44.476 7.783 62.858-.124-3.218-4.335 6.6-48.146-12.623-79.685-3.752-6.157-23.947-5.124-25.915-4.994z" class="cls-8" data-name="Path 798" transform="translate(142.794 226.925)"/>
            <path id="Path_799" d="M195.6 289.24c1.753.448 3.8.788 4.734 2.278a5.533 5.533 0 0 1 .505 3.3 2.756 2.756 0 0 1 2.892-1.885 2.684 2.684 0 0 1 2.343 2.488 4.366 4.366 0 0 1-.389 1.666 19.944 19.944 0 0 1-2 3.81c2.2.81 4.041 7.24 5.141 9.238 3.7-.924 11.921-4.1 12.637-17.2.334-6.1-1.524-13.4-8.14-17.46-4.673-2.869-12.428-2.91-17.776-1.542-4.337 1.107-11.257 5.439-8.031 10.5 1.623 2.56 5.184 4.067 8.084 4.807z" class="cls-14" data-name="Path 799" transform="translate(169.507 223.916)"/>
            <path id="Path_800" d="M206.452 277.228c2.505-.833 5.682-.391 7.186 1.7 1.175 1.633 1.068 3.775 1.447 5.723a4.459 4.459 0 0 0 1.246 2.547 5.366 5.366 0 0 0 3.323 1.025c2.9.154 5.83-.213 8.685.272s5.777 2.1 6.59 4.766c.45 1.477.205 3.1.744 4.547.809 2.174 3.123 3.41 5.139 4.671A33.463 33.463 0 0 1 251.38 313a19.041 19.041 0 0 1 3.161 8.724c.2 3.1 2.438 7.2 1.842 10.254-.642 3.3-3.881 7.753-10.284 9.812-11.062 3.56-14.566 5.1-25.164-1.2-1.279-.76-3.777-3.344-4.932-4.268a5.637 5.637 0 0 1-1.8-2.865c-.882-3.042.138-6.32 1.726-9.087s3.729-5.214 5.346-7.964a9.975 9.975 0 0 0 1.674-5.388 2.9 2.9 0 0 0-.73-1.958 3.286 3.286 0 0 0-1.714-.774c-2.328-.456-4.888.026-7-1.019a4.938 4.938 0 0 1-2.553-5.627c.415-1.423 1.494-2.624 1.8-4.073.442-2.083-.863-4.227-2.679-5.447a15.614 15.614 0 0 0-6.239-2.053 7.2 7.2 0 0 1-3.08-.981 4.125 4.125 0 0 1-1.562-3.423c.054-4.087 3.388-7.145 7.26-8.435z" class="cls-14" data-name="Path 800" transform="translate(181.702 227.592)"/>
            <path id="Path_801" d="M201.915 282.449a6.612 6.612 0 0 1 5.941 6.5c-.055 2.478-1.518 4.663-2.586 6.9s-1.725 5.052-.294 7.076c1.25 1.763 3.65 2.268 5.812 2.237 2.493-.038 5.441-.426 7.056 1.475 1.3 1.53 1.021 3.85.3 5.723s-1.814 3.662-1.953 5.664" class="cls-15" data-name="Path 801" transform="translate(184.349 233.064)"/>
            <path id="Path_802" d="M187.9 276.21a23.031 23.031 0 0 1 29.736 3.283" class="cls-15" data-name="Path 802" transform="translate(170.696 223.11)"/>
            <path id="Path_803" d="M364.83 290.681l-4.45 8.947 10.873 4.446 1.161-10.3z" class="cls-9" data-name="Path 803" transform="translate(338.735 241.083)"/>
            <path id="Path_804" d="M373.315 275.929c-24.662 10.736-14.558 36.755.454 33.7 7.307-1.487 11.007-25.014 11.007-25.014z" class="cls-9" data-name="Path 804" transform="translate(336.814 226.712)"/>
            <path id="Path_805" d="M375.823 276.6a12.939 12.939 0 0 0-2.914-4.189c-1.337-1.074-3.453-1.416-4.709-.247-1.658 1.542-.687 4.43.993 5.948-1.447.176-3.165-.823-4.229.17-.807.754-.527 2.089-.065 3.092a13.747 13.747 0 0 0 5.054 5.792c-1.252.711-2.7 2.085-1.951 3.313.207.34.557.575.76.916.478.8.016 1.81-.466 2.6q-1.167 1.925-2.513 3.735c.847-1.163 2.914-.685 3.534.612a3.761 3.761 0 0 1-.878 3.974 3.942 3.942 0 0 1-1.99 1.269c-.677.156-3.664 9.4-1.333 11.206 2.88 2.239 12.683.3 14.1-2.233 1.417 1.538 3.494 2.7 5.546 2.3s3.619-2.94 2.511-4.713a5.768 5.768 0 0 0 6.959-8.351c1.208-.365 1.451-2 1.143-3.224a7.453 7.453 0 0 0-5.1-5.246 2.526 2.526 0 0 0 2.3-2.484 5.194 5.194 0 0 0-1.378-3.392c-2.316-2.855-5.056-3.619-8.478-4.051-3.46-.43-5.366-3.95-6.896-6.797z" class="cls-7" data-name="Path 805" transform="translate(342.497 222.335)"/>
            <path id="Path_806" d="M366.478 407.783s-14.43 6.928-16.365 9.087c0 0 28.39 1.277 30.613-.063s-4.547-9.044-4.547-9.044z" class="cls-10" data-name="Path 806" transform="translate(328.732 355.152)"/>
            <path id="Path_807" d="M392.565 404.806s-12.683 9.765-14.13 12.28c0 0 29.938-4.446 29.938-6.4s-6.32-7.907-6.32-7.907z" class="cls-10" data-name="Path 807" transform="translate(356.325 350.295)"/>
            <path id="Path_808" d="M367.329 344.087c-.533 2.936-20.288 80.929 36.237 127.687l16.375-3.755s-19.056-17.875-28.036-50.04c-8.493-30.415-1.747-33.4 3.346-50.152 5.637-18.544 1.441-32 1.441-32z" class="cls-7" data-name="Path 808" transform="translate(341.833 285.066)"/>
            <path id="Path_809" d="M357.423 340.746c-8.961 21.415-24.346 94.4 9.184 135.5l16.746-.035s-13.19-14.455-14.665-47.994 7.054-48.263 13.068-59.33 11.579-29.873 11.579-29.873z" class="cls-7" data-name="Path 809" transform="translate(324.723 288.17)"/>
            <path id="Path_810" d="M347.125 272.639c-4.448 15.685-5.911 44.662 16.371 56.333l14.914-3.635s-26.885-14.1-21.124-49.72z" class="cls-8" data-name="Path 810" transform="translate(323.205 223.506)"/>
            <path id="Path_811" d="M325.09 269.277l11.577-1.427s-1.394 48.61 54.748 52.7c42.855 3.125 46.223 83.547 46.223 83.547-13.818 9.3-37.007 12.12-66.72 9.99 0 0 1.9-57.374-2.817-73.081-.001.004-46.646-14.673-43.011-71.729z" class="cls-8" data-name="Path 811" transform="translate(304.156 218.841)"/>
            <path id="Path_812" d="M317.966 264.485c-1.96 2.27 6.221 5.151 14.153 8.823l10.159-1.254a39.946 39.946 0 0 0-.008-4.144c-.126-2.116-1.186-3.323-2.393-1.506s-6.341 2.43-8.762.774-11.19-4.964-13.149-2.693z" class="cls-9" data-name="Path 812" transform="translate(297.126 214.811)"/>
            <path id="Path_813" d="M347.208 275.882c-3.721-3.66-2.734-3.437-2.734-3.437l11.354 2.566s2.5-5.54 4.612-5.7-1.593 3.818-.744 5.291-2.328 4.254-2.328 4.254z" class="cls-9" data-name="Path 813" transform="translate(323.122 220.264)"/>
            <g id="Group_1523" data-name="Group 1523" transform="translate(724.312 503.187)">
                <path id="Path_814" d="M373.526 277.312c2.326.594 4.7.833 6.632 2.42a4.98 4.98 0 0 1 1.4 6.478c-.648 1.025.89 1.838 1.585.926a6.209 6.209 0 0 0-.49-7.65c-2.043-2.515-5.854-3.554-8.983-3.218-.559.059-.766.884-.14 1.044z" class="cls-7" data-name="Path 814" transform="translate(-373.143 -276.206)"/>
            </g>
            <g id="Group_1524" data-name="Group 1524" transform="translate(732.999 524.209)">
                <path id="Path_815" d="M379.505 288c1.538.9 2.833 2.377 2.18 4.276-.608 1.761-2.4 2.811-3.836 3.82a.663.663 0 0 0 .669 1.145c2.132-1.125 4.389-2.711 4.721-5.3.29-2.266-1.228-3.99-3.109-5.007a.618.618 0 0 0-.624 1.066z" class="cls-7" data-name="Path 815" transform="translate(-377.543 -286.854)"/>
            </g>
            <g id="Group_1525" data-name="Group 1525" transform="translate(708.823 534.016)">
                <path id="Path_816" d="M365.508 294.93c5.234 3.252 12.629 2.724 16.957-1.85.533-.565-.19-1.631-.871-1.127-4.728 3.5-10.1 4.64-15.658 2.245a.425.425 0 0 0-.428.732z" class="cls-7" data-name="Path 816" transform="translate(-365.298 -291.821)"/>
            </g>
            <g id="Group_1526" data-name="Group 1526" transform="translate(733.58 507.35)">
                <path id="Path_817" d="M379.9 278.693c3.007 2.857 0 6.77-1.929 9.22-.426.541.245 1.269.774.774 1.716-1.6 3.429-3.366 3.662-5.832a4.5 4.5 0 0 0-2.235-4.513c-.217-.117-.46.172-.272.351z" class="cls-7" data-name="Path 817" transform="translate(-377.838 -278.314)"/>
            </g>
            <path id="Path_818" d="M212.013 109.774l-4.632-11.31L252.058 81.5z" class="cls-16" data-name="Path 818" transform="translate(189.674 37.289)"/>
            <path id="Path_819" d="M210.867 102.8l37.8-21.3-26.309 26.721z" class="cls-6" data-name="Path 819" transform="translate(193.07 37.289)"/>
            <path id="Path_820" d="M202.2 93.858L257.1 81.5l-44.673 16.965z" class="cls-6" data-name="Path 820" transform="translate(184.628 37.289)"/>
            <path id="Path_821" d="M211.977 92.292l-2.249 6.97 6.819-4.815z" class="cls-6" data-name="Path 821" transform="translate(191.96 47.802)"/>
            <g id="Group_1527" data-name="Group 1527" transform="translate(369.651 144.349)">
                <path id="Path_822" d="M210.017 138.716h-.024a25.319 25.319 0 0 1-8.071-1.362.987.987 0 0 1 .681-1.854 23.354 23.354 0 0 0 7.437 1.242.987.987 0 0 1-.024 1.974zm7.873-.519a.987.987 0 0 1-.136-1.964 72.417 72.417 0 0 0 7.638-1.524.988.988 0 0 1 .486 1.915 75.3 75.3 0 0 1-7.848 1.566 1.134 1.134 0 0 1-.14.01zm-21.748-5.522a.984.984 0 0 1-.839-.468 12.951 12.951 0 0 1-1.635-4.2 9.68 9.68 0 0 1-.168-1.921 14.669 14.669 0 0 1 .156-2.116.969.969 0 0 1 1.119-.835.986.986 0 0 1 .833 1.117 12.989 12.989 0 0 0-.134 1.834 7.668 7.668 0 0 0 .126 1.52 10.992 10.992 0 0 0 1.38 3.56.987.987 0 0 1-.839 1.506zm13.066-12.15a.986.986 0 0 1-.292-1.929c1.514-.47 3.133-1.4 3.135-2.608a1.5 1.5 0 0 0-.03-.292 2.044 2.044 0 0 0-.584-1.076.987.987 0 1 1 1.392-1.4 3.968 3.968 0 0 1 1.129 2.1 3.387 3.387 0 0 1 .067.671c0 1.966-1.65 3.6-4.525 4.493a1.019 1.019 0 0 1-.293.041zm-7.745-.172a.963.963 0 0 1-.413-.091 4.883 4.883 0 0 1-2.312-2.024 14.669 14.669 0 0 1-.227-.426.987.987 0 0 1-1.35-1.433c.166-.18.336-.355.511-.525a13.046 13.046 0 0 1-.657-3.121.988.988 0 0 1 .9-1.064 1 1 0 0 1 1.066.9 10.817 10.817 0 0 0 .338 1.923 15.874 15.874 0 0 1 5.054-2.288.988.988 0 0 1 .507 1.909 13.613 13.613 0 0 0-4.855 2.31q.2.429.438.857a2.961 2.961 0 0 0 1.412 1.188.987.987 0 0 1-.415 1.883zm-1.563-14.238a.986.986 0 0 1-.843-1.5 20.191 20.191 0 0 1 5.723-5.943.988.988 0 0 1 1.129 1.621 18.138 18.138 0 0 0-5.165 5.346.985.985 0 0 1-.844.476zm12.566-8.977a.988.988 0 0 1-.257-1.941 19.421 19.421 0 0 1 8.243-.521.987.987 0 1 1-.33 1.947 17.391 17.391 0 0 0-7.4.48.986.986 0 0 1-.257.035z" class="cls-3" data-name="Path 822" transform="translate(-193.5 -94.447)"/>
            </g>
            <path id="Path_823" d="M150.021 394.674c.008 2.92-.551 7.824 1.4 7.9s1.139-4.655 3.356-4.527c1.416.081-.659 15.553 4.689 15.926 3.678.255 3.007-7.589 3.384-12.5.257-3.323 4.511-2.671 4.545-.472.039 2.458-.118 4.1 0 6.9.2 4.671 7.382 3.431 7.125-2.813s-.016-10.466-.016-10.466z" class="cls-1" data-name="Path 823" transform="translate(133.724 342.35)"/>
        </g>
        <g id="Group_1529" data-name="Group 1529" transform="translate(-131.765 -33)">
            <path id="Path_20" d="M30.481 71.172c33.784-59.31 119.278-59.31 153.063 0 33.446 58.716-8.958 131.67-76.531 131.67-67.574 0-109.977-72.954-76.531-131.67z" class="cls-17" data-name="Path 20" transform="translate(1625.629 113.164)"/>
            <path id="Path_21" d="M30.481 71.172c33.784-59.31 119.278-59.31 153.063 0 33.446 58.716-8.958 131.67-76.531 131.67-67.574 0-109.977-72.954-76.531-131.67z" class="cls-17" data-name="Path 21" transform="translate(1750.188 94.001)"/>
            <path id="Path_22" d="M30.481 71.172c33.784-59.31 119.278-59.31 153.063 0 33.446 58.716-8.958 131.67-76.531 131.67-67.574 0-109.977-72.954-76.531-131.67z" class="cls-17" data-name="Path 22" transform="translate(1700.684 200.994)"/>
            <path id="Path_30" d="M27.524-.477c16.82 26.169 27.524 12.323 27.524 27.524a27.524 27.524 0 1 1-55.048 0C0 11.846 10.7-26.646 27.524-.477z" class="cls-18" data-name="Path 30" transform="translate(1462.765 148.594)"/>
            <path id="Path_31" d="M27.524-.477c16.82 26.169 27.524 12.323 27.524 27.524a27.524 27.524 0 1 1-55.048 0C0 11.846 10.7-26.646 27.524-.477z" class="cls-18" data-name="Path 31" transform="translate(1900.318 397.712)"/>
            <path id="Path_32" d="M27.524-.477c16.82 26.169 27.524 12.323 27.524 27.524a27.524 27.524 0 1 1-55.048 0C0 11.846 10.7-26.646 27.524-.477z" class="cls-18" data-name="Path 32" transform="translate(1855.604 186.92)"/>
        </g>
    </g>
</svg>
